<mxfile host="app.diagrams.net" agent="Mozilla/5.0 (Windows NT 10.0; Win64; x64) AppleWebKit/537.36 (KHTML, like Gecko) Chrome/130.0.0.0 Safari/537.36" version="24.8.4">
  <diagram name="ERD" id="2bBc31CoKsI8al31NjRh">
    <mxGraphModel dx="2418" dy="2105" grid="1" gridSize="10" guides="1" tooltips="1" connect="1" arrows="1" fold="1" page="1" pageScale="1" pageWidth="827" pageHeight="1169" math="0" shadow="0">
      <root>
        <mxCell id="0" />
        <mxCell id="1" parent="0" />
        <mxCell id="RLT06DY8JHhMq8nQUrHm-3" style="edgeStyle=orthogonalEdgeStyle;rounded=0;orthogonalLoop=1;jettySize=auto;html=1;entryX=0;entryY=0.5;entryDx=0;entryDy=0;" edge="1" parent="1" source="RLT06DY8JHhMq8nQUrHm-1" target="RLT06DY8JHhMq8nQUrHm-2">
          <mxGeometry relative="1" as="geometry" />
        </mxCell>
        <mxCell id="RLT06DY8JHhMq8nQUrHm-9" style="edgeStyle=orthogonalEdgeStyle;rounded=0;orthogonalLoop=1;jettySize=auto;html=1;entryX=0.5;entryY=0;entryDx=0;entryDy=0;" edge="1" parent="1" source="RLT06DY8JHhMq8nQUrHm-1" target="RLT06DY8JHhMq8nQUrHm-8">
          <mxGeometry relative="1" as="geometry" />
        </mxCell>
        <mxCell id="RLT06DY8JHhMq8nQUrHm-27" style="edgeStyle=orthogonalEdgeStyle;rounded=0;orthogonalLoop=1;jettySize=auto;html=1;entryX=1;entryY=0.5;entryDx=0;entryDy=0;exitX=0.25;exitY=0;exitDx=0;exitDy=0;" edge="1" parent="1" source="RLT06DY8JHhMq8nQUrHm-1" target="RLT06DY8JHhMq8nQUrHm-25">
          <mxGeometry relative="1" as="geometry" />
        </mxCell>
        <mxCell id="RLT06DY8JHhMq8nQUrHm-81" style="edgeStyle=orthogonalEdgeStyle;rounded=0;orthogonalLoop=1;jettySize=auto;html=1;entryX=0.5;entryY=1;entryDx=0;entryDy=0;exitX=0.913;exitY=0.06;exitDx=0;exitDy=0;exitPerimeter=0;" edge="1" parent="1" source="RLT06DY8JHhMq8nQUrHm-1" target="RLT06DY8JHhMq8nQUrHm-80">
          <mxGeometry relative="1" as="geometry">
            <Array as="points">
              <mxPoint x="466" y="360" />
              <mxPoint x="561" y="360" />
            </Array>
          </mxGeometry>
        </mxCell>
        <mxCell id="RLT06DY8JHhMq8nQUrHm-1" value="mhs" style="rounded=1;arcSize=10;whiteSpace=wrap;html=1;align=center;" vertex="1" parent="1">
          <mxGeometry x="320" y="390" width="160" height="50" as="geometry" />
        </mxCell>
        <mxCell id="RLT06DY8JHhMq8nQUrHm-21" style="edgeStyle=orthogonalEdgeStyle;rounded=0;orthogonalLoop=1;jettySize=auto;html=1;entryX=1;entryY=0.5;entryDx=0;entryDy=0;exitX=0.5;exitY=1;exitDx=0;exitDy=0;" edge="1" parent="1" source="RLT06DY8JHhMq8nQUrHm-2" target="RLT06DY8JHhMq8nQUrHm-8">
          <mxGeometry relative="1" as="geometry">
            <Array as="points">
              <mxPoint x="940" y="500" />
              <mxPoint x="510" y="500" />
              <mxPoint x="510" y="645" />
            </Array>
          </mxGeometry>
        </mxCell>
        <mxCell id="RLT06DY8JHhMq8nQUrHm-88" style="edgeStyle=orthogonalEdgeStyle;rounded=0;orthogonalLoop=1;jettySize=auto;html=1;entryX=1;entryY=0.5;entryDx=0;entryDy=0;exitX=0.831;exitY=0;exitDx=0;exitDy=0;exitPerimeter=0;" edge="1" parent="1" source="RLT06DY8JHhMq8nQUrHm-2" target="RLT06DY8JHhMq8nQUrHm-100">
          <mxGeometry relative="1" as="geometry" />
        </mxCell>
        <mxCell id="RLT06DY8JHhMq8nQUrHm-113" style="edgeStyle=orthogonalEdgeStyle;rounded=0;orthogonalLoop=1;jettySize=auto;html=1;exitX=0.25;exitY=0;exitDx=0;exitDy=0;entryX=1;entryY=0.5;entryDx=0;entryDy=0;" edge="1" parent="1" source="RLT06DY8JHhMq8nQUrHm-2" target="RLT06DY8JHhMq8nQUrHm-80">
          <mxGeometry relative="1" as="geometry" />
        </mxCell>
        <mxCell id="RLT06DY8JHhMq8nQUrHm-2" value="dosen" style="rounded=1;arcSize=10;whiteSpace=wrap;html=1;align=center;" vertex="1" parent="1">
          <mxGeometry x="860" y="390" width="160" height="50" as="geometry" />
        </mxCell>
        <mxCell id="RLT06DY8JHhMq8nQUrHm-4" value="" style="endArrow=classic;html=1;rounded=0;" edge="1" parent="1">
          <mxGeometry width="50" height="50" relative="1" as="geometry">
            <mxPoint x="557" y="407" as="sourcePoint" />
            <mxPoint x="782" y="407" as="targetPoint" />
          </mxGeometry>
        </mxCell>
        <mxCell id="RLT06DY8JHhMq8nQUrHm-5" value="memiliki" style="text;html=1;align=center;verticalAlign=middle;resizable=0;points=[];autosize=1;strokeColor=none;fillColor=none;" vertex="1" parent="1">
          <mxGeometry x="640" y="380" width="70" height="30" as="geometry" />
        </mxCell>
        <mxCell id="RLT06DY8JHhMq8nQUrHm-6" value="1..1" style="text;html=1;align=center;verticalAlign=middle;resizable=0;points=[];autosize=1;strokeColor=none;fillColor=none;" vertex="1" parent="1">
          <mxGeometry x="819" y="385" width="40" height="30" as="geometry" />
        </mxCell>
        <mxCell id="RLT06DY8JHhMq8nQUrHm-7" value="1..*" style="text;html=1;align=center;verticalAlign=middle;resizable=0;points=[];autosize=1;strokeColor=none;fillColor=none;" vertex="1" parent="1">
          <mxGeometry x="479" y="388" width="40" height="30" as="geometry" />
        </mxCell>
        <mxCell id="RLT06DY8JHhMq8nQUrHm-41" style="edgeStyle=orthogonalEdgeStyle;rounded=0;orthogonalLoop=1;jettySize=auto;html=1;entryX=1;entryY=0.5;entryDx=0;entryDy=0;" edge="1" parent="1" source="RLT06DY8JHhMq8nQUrHm-8" target="RLT06DY8JHhMq8nQUrHm-40">
          <mxGeometry relative="1" as="geometry" />
        </mxCell>
        <mxCell id="RLT06DY8JHhMq8nQUrHm-8" value="matkul" style="rounded=1;arcSize=10;whiteSpace=wrap;html=1;align=center;" vertex="1" parent="1">
          <mxGeometry x="320" y="620" width="160" height="50" as="geometry" />
        </mxCell>
        <mxCell id="RLT06DY8JHhMq8nQUrHm-10" value="memiliki" style="text;html=1;align=center;verticalAlign=middle;resizable=0;points=[];autosize=1;strokeColor=none;fillColor=none;" vertex="1" parent="1">
          <mxGeometry x="407" y="513.5" width="70" height="30" as="geometry" />
        </mxCell>
        <mxCell id="RLT06DY8JHhMq8nQUrHm-11" value="" style="endArrow=classic;html=1;rounded=0;" edge="1" parent="1">
          <mxGeometry width="50" height="50" relative="1" as="geometry">
            <mxPoint x="414" y="480" as="sourcePoint" />
            <mxPoint x="414" y="580" as="targetPoint" />
          </mxGeometry>
        </mxCell>
        <mxCell id="RLT06DY8JHhMq8nQUrHm-12" value="1..1" style="text;html=1;align=center;verticalAlign=middle;resizable=0;points=[];autosize=1;strokeColor=none;fillColor=none;" vertex="1" parent="1">
          <mxGeometry x="401" y="590" width="40" height="30" as="geometry" />
        </mxCell>
        <mxCell id="RLT06DY8JHhMq8nQUrHm-13" value="1..1" style="text;html=1;align=center;verticalAlign=middle;resizable=0;points=[];autosize=1;strokeColor=none;fillColor=none;" vertex="1" parent="1">
          <mxGeometry x="401" y="441" width="40" height="30" as="geometry" />
        </mxCell>
        <mxCell id="RLT06DY8JHhMq8nQUrHm-14" value="mhs_matkul" style="rounded=1;arcSize=10;whiteSpace=wrap;html=1;align=center;" vertex="1" parent="1">
          <mxGeometry x="190" y="519.5" width="160" height="50" as="geometry" />
        </mxCell>
        <mxCell id="RLT06DY8JHhMq8nQUrHm-17" value="" style="endArrow=classic;html=1;rounded=0;entryX=1;entryY=0.5;entryDx=0;entryDy=0;" edge="1" parent="1" target="RLT06DY8JHhMq8nQUrHm-14">
          <mxGeometry width="50" height="50" relative="1" as="geometry">
            <mxPoint x="400" y="545" as="sourcePoint" />
            <mxPoint x="210" y="540" as="targetPoint" />
          </mxGeometry>
        </mxCell>
        <mxCell id="RLT06DY8JHhMq8nQUrHm-18" value="1..*" style="text;html=1;align=center;verticalAlign=middle;resizable=0;points=[];autosize=1;strokeColor=none;fillColor=none;" vertex="1" parent="1">
          <mxGeometry x="350" y="513.5" width="40" height="30" as="geometry" />
        </mxCell>
        <mxCell id="RLT06DY8JHhMq8nQUrHm-19" value="1..*" style="text;html=1;align=center;verticalAlign=middle;resizable=0;points=[];autosize=1;strokeColor=none;fillColor=none;" vertex="1" parent="1">
          <mxGeometry x="351" y="546.5" width="40" height="30" as="geometry" />
        </mxCell>
        <mxCell id="RLT06DY8JHhMq8nQUrHm-22" value="" style="endArrow=classic;html=1;rounded=0;" edge="1" parent="1">
          <mxGeometry width="50" height="50" relative="1" as="geometry">
            <mxPoint x="943" y="512.3199999999999" as="sourcePoint" />
            <mxPoint x="613" y="512.3199999999999" as="targetPoint" />
          </mxGeometry>
        </mxCell>
        <mxCell id="RLT06DY8JHhMq8nQUrHm-23" value="memiliki" style="text;html=1;align=center;verticalAlign=middle;resizable=0;points=[];autosize=1;strokeColor=none;fillColor=none;" vertex="1" parent="1">
          <mxGeometry x="790" y="510.5" width="70" height="30" as="geometry" />
        </mxCell>
        <mxCell id="RLT06DY8JHhMq8nQUrHm-24" value="1..1" style="text;html=1;align=center;verticalAlign=middle;resizable=0;points=[];autosize=1;strokeColor=none;fillColor=none;" vertex="1" parent="1">
          <mxGeometry x="507" y="620" width="40" height="30" as="geometry" />
        </mxCell>
        <mxCell id="RLT06DY8JHhMq8nQUrHm-31" style="edgeStyle=orthogonalEdgeStyle;rounded=0;orthogonalLoop=1;jettySize=auto;html=1;entryX=0;entryY=0.75;entryDx=0;entryDy=0;exitX=0.5;exitY=1;exitDx=0;exitDy=0;" edge="1" parent="1" source="RLT06DY8JHhMq8nQUrHm-25" target="RLT06DY8JHhMq8nQUrHm-8">
          <mxGeometry relative="1" as="geometry" />
        </mxCell>
        <mxCell id="RLT06DY8JHhMq8nQUrHm-52" style="edgeStyle=orthogonalEdgeStyle;rounded=0;orthogonalLoop=1;jettySize=auto;html=1;entryX=0.5;entryY=1;entryDx=0;entryDy=0;" edge="1" parent="1" source="RLT06DY8JHhMq8nQUrHm-25" target="RLT06DY8JHhMq8nQUrHm-51">
          <mxGeometry relative="1" as="geometry" />
        </mxCell>
        <mxCell id="RLT06DY8JHhMq8nQUrHm-58" style="edgeStyle=orthogonalEdgeStyle;rounded=0;orthogonalLoop=1;jettySize=auto;html=1;" edge="1" parent="1" source="RLT06DY8JHhMq8nQUrHm-25" target="RLT06DY8JHhMq8nQUrHm-57">
          <mxGeometry relative="1" as="geometry" />
        </mxCell>
        <mxCell id="RLT06DY8JHhMq8nQUrHm-25" value="perwalian" style="rounded=1;arcSize=10;whiteSpace=wrap;html=1;align=center;" vertex="1" parent="1">
          <mxGeometry x="80" y="309" width="160" height="50" as="geometry" />
        </mxCell>
        <mxCell id="RLT06DY8JHhMq8nQUrHm-28" value="melakukan" style="text;html=1;align=center;verticalAlign=middle;resizable=0;points=[];autosize=1;strokeColor=none;fillColor=none;" vertex="1" parent="1">
          <mxGeometry x="280" y="301" width="80" height="30" as="geometry" />
        </mxCell>
        <mxCell id="RLT06DY8JHhMq8nQUrHm-29" value="1..1" style="text;html=1;align=center;verticalAlign=middle;resizable=0;points=[];autosize=1;strokeColor=none;fillColor=none;" vertex="1" parent="1">
          <mxGeometry x="240" y="305" width="40" height="30" as="geometry" />
        </mxCell>
        <mxCell id="RLT06DY8JHhMq8nQUrHm-30" value="1..1" style="text;html=1;align=center;verticalAlign=middle;resizable=0;points=[];autosize=1;strokeColor=none;fillColor=none;" vertex="1" parent="1">
          <mxGeometry x="355" y="361" width="40" height="30" as="geometry" />
        </mxCell>
        <mxCell id="RLT06DY8JHhMq8nQUrHm-32" value="" style="endArrow=classic;html=1;rounded=0;" edge="1" parent="1">
          <mxGeometry width="50" height="50" relative="1" as="geometry">
            <mxPoint x="366" y="360" as="sourcePoint" />
            <mxPoint x="276" y="327.5" as="targetPoint" />
            <Array as="points">
              <mxPoint x="366" y="328" />
            </Array>
          </mxGeometry>
        </mxCell>
        <mxCell id="RLT06DY8JHhMq8nQUrHm-33" value="" style="endArrow=classic;html=1;rounded=0;" edge="1" parent="1">
          <mxGeometry width="50" height="50" relative="1" as="geometry">
            <mxPoint x="148" y="480" as="sourcePoint" />
            <mxPoint x="148" y="640" as="targetPoint" />
          </mxGeometry>
        </mxCell>
        <mxCell id="RLT06DY8JHhMq8nQUrHm-34" value="memiliki" style="text;html=1;align=center;verticalAlign=middle;resizable=0;points=[];autosize=1;strokeColor=none;fillColor=none;" vertex="1" parent="1">
          <mxGeometry x="86" y="546.5" width="70" height="30" as="geometry" />
        </mxCell>
        <mxCell id="RLT06DY8JHhMq8nQUrHm-35" value="1..*" style="text;html=1;align=center;verticalAlign=middle;resizable=0;points=[];autosize=1;strokeColor=none;fillColor=none;" vertex="1" parent="1">
          <mxGeometry x="280" y="627" width="40" height="30" as="geometry" />
        </mxCell>
        <mxCell id="RLT06DY8JHhMq8nQUrHm-36" value="1..1" style="text;html=1;align=center;verticalAlign=middle;resizable=0;points=[];autosize=1;strokeColor=none;fillColor=none;" vertex="1" parent="1">
          <mxGeometry x="160" y="359" width="40" height="30" as="geometry" />
        </mxCell>
        <mxCell id="RLT06DY8JHhMq8nQUrHm-39" value="1..1" style="text;html=1;align=center;verticalAlign=middle;resizable=0;points=[];autosize=1;strokeColor=none;fillColor=none;" vertex="1" parent="1">
          <mxGeometry x="940" y="440" width="40" height="30" as="geometry" />
        </mxCell>
        <mxCell id="RLT06DY8JHhMq8nQUrHm-40" value="ruangan" style="rounded=1;arcSize=10;whiteSpace=wrap;html=1;align=center;" vertex="1" parent="1">
          <mxGeometry x="180" y="860" width="160" height="50" as="geometry" />
        </mxCell>
        <mxCell id="RLT06DY8JHhMq8nQUrHm-42" value="memiliki" style="text;html=1;align=center;verticalAlign=middle;resizable=0;points=[];autosize=1;strokeColor=none;fillColor=none;rotation=90;" vertex="1" parent="1">
          <mxGeometry x="392" y="775" width="70" height="30" as="geometry" />
        </mxCell>
        <mxCell id="RLT06DY8JHhMq8nQUrHm-43" value="" style="endArrow=classic;html=1;rounded=0;" edge="1" parent="1">
          <mxGeometry width="50" height="50" relative="1" as="geometry">
            <mxPoint x="414" y="720" as="sourcePoint" />
            <mxPoint x="414.5" y="870" as="targetPoint" />
          </mxGeometry>
        </mxCell>
        <mxCell id="RLT06DY8JHhMq8nQUrHm-44" value="1..1" style="text;html=1;align=center;verticalAlign=middle;resizable=0;points=[];autosize=1;strokeColor=none;fillColor=none;" vertex="1" parent="1">
          <mxGeometry x="342" y="884" width="40" height="30" as="geometry" />
        </mxCell>
        <mxCell id="RLT06DY8JHhMq8nQUrHm-75" style="edgeStyle=orthogonalEdgeStyle;rounded=0;orthogonalLoop=1;jettySize=auto;html=1;entryX=0;entryY=0.5;entryDx=0;entryDy=0;" edge="1" parent="1" target="RLT06DY8JHhMq8nQUrHm-74">
          <mxGeometry relative="1" as="geometry">
            <mxPoint x="455" y="670" as="sourcePoint" />
            <Array as="points">
              <mxPoint x="455" y="775" />
            </Array>
          </mxGeometry>
        </mxCell>
        <mxCell id="RLT06DY8JHhMq8nQUrHm-45" value="1..1" style="text;html=1;align=center;verticalAlign=middle;resizable=0;points=[];autosize=1;strokeColor=none;fillColor=none;" vertex="1" parent="1">
          <mxGeometry x="400" y="670" width="40" height="30" as="geometry" />
        </mxCell>
        <mxCell id="RLT06DY8JHhMq8nQUrHm-46" value="matkul_ruangan" style="rounded=1;arcSize=10;whiteSpace=wrap;html=1;align=center;" vertex="1" parent="1">
          <mxGeometry x="110" y="750" width="160" height="50" as="geometry" />
        </mxCell>
        <mxCell id="RLT06DY8JHhMq8nQUrHm-47" value="" style="endArrow=classic;html=1;rounded=0;entryX=1;entryY=0.5;entryDx=0;entryDy=0;" edge="1" parent="1" target="RLT06DY8JHhMq8nQUrHm-46">
          <mxGeometry width="50" height="50" relative="1" as="geometry">
            <mxPoint x="400" y="774.5" as="sourcePoint" />
            <mxPoint x="499" y="775" as="targetPoint" />
          </mxGeometry>
        </mxCell>
        <mxCell id="RLT06DY8JHhMq8nQUrHm-49" value="1..*" style="text;html=1;align=center;verticalAlign=middle;resizable=0;points=[];autosize=1;strokeColor=none;fillColor=none;" vertex="1" parent="1">
          <mxGeometry x="267" y="776" width="40" height="30" as="geometry" />
        </mxCell>
        <mxCell id="RLT06DY8JHhMq8nQUrHm-50" value="1..*" style="text;html=1;align=center;verticalAlign=middle;resizable=0;points=[];autosize=1;strokeColor=none;fillColor=none;" vertex="1" parent="1">
          <mxGeometry x="267" y="746" width="40" height="30" as="geometry" />
        </mxCell>
        <mxCell id="RLT06DY8JHhMq8nQUrHm-51" value="pembayaran" style="rounded=1;arcSize=10;whiteSpace=wrap;html=1;align=center;" vertex="1" parent="1">
          <mxGeometry x="80" y="130" width="160" height="50" as="geometry" />
        </mxCell>
        <mxCell id="RLT06DY8JHhMq8nQUrHm-53" value="" style="endArrow=classic;html=1;rounded=0;" edge="1" parent="1">
          <mxGeometry width="50" height="50" relative="1" as="geometry">
            <mxPoint x="170" y="270" as="sourcePoint" />
            <mxPoint x="170" y="220" as="targetPoint" />
          </mxGeometry>
        </mxCell>
        <mxCell id="RLT06DY8JHhMq8nQUrHm-54" value="melakukan" style="text;html=1;align=center;verticalAlign=middle;resizable=0;points=[];autosize=1;strokeColor=none;fillColor=none;" vertex="1" parent="1">
          <mxGeometry x="167" y="230" width="80" height="30" as="geometry" />
        </mxCell>
        <mxCell id="RLT06DY8JHhMq8nQUrHm-55" value="1..1" style="text;html=1;align=center;verticalAlign=middle;resizable=0;points=[];autosize=1;strokeColor=none;fillColor=none;" vertex="1" parent="1">
          <mxGeometry x="163" y="181" width="40" height="30" as="geometry" />
        </mxCell>
        <mxCell id="RLT06DY8JHhMq8nQUrHm-56" value="1..1" style="text;html=1;align=center;verticalAlign=middle;resizable=0;points=[];autosize=1;strokeColor=none;fillColor=none;" vertex="1" parent="1">
          <mxGeometry x="160" y="279" width="40" height="30" as="geometry" />
        </mxCell>
        <mxCell id="RLT06DY8JHhMq8nQUrHm-126" style="edgeStyle=orthogonalEdgeStyle;rounded=0;orthogonalLoop=1;jettySize=auto;html=1;entryX=0.5;entryY=1;entryDx=0;entryDy=0;exitX=0.421;exitY=0.991;exitDx=0;exitDy=0;exitPerimeter=0;" edge="1" parent="1" source="RLT06DY8JHhMq8nQUrHm-57" target="RLT06DY8JHhMq8nQUrHm-118">
          <mxGeometry relative="1" as="geometry">
            <Array as="points">
              <mxPoint x="-223" y="950" />
              <mxPoint x="1060" y="950" />
            </Array>
          </mxGeometry>
        </mxCell>
        <mxCell id="RLT06DY8JHhMq8nQUrHm-57" value="jadwal" style="rounded=1;arcSize=10;whiteSpace=wrap;html=1;align=center;" vertex="1" parent="1">
          <mxGeometry x="-290" y="309" width="160" height="50" as="geometry" />
        </mxCell>
        <mxCell id="RLT06DY8JHhMq8nQUrHm-59" value="" style="endArrow=classic;html=1;rounded=0;" edge="1" parent="1">
          <mxGeometry width="50" height="50" relative="1" as="geometry">
            <mxPoint x="36" y="324.5" as="sourcePoint" />
            <mxPoint x="-84" y="324.5" as="targetPoint" />
          </mxGeometry>
        </mxCell>
        <mxCell id="RLT06DY8JHhMq8nQUrHm-60" value="1..1" style="text;html=1;align=center;verticalAlign=middle;resizable=0;points=[];autosize=1;strokeColor=none;fillColor=none;" vertex="1" parent="1">
          <mxGeometry x="-130" y="309" width="40" height="30" as="geometry" />
        </mxCell>
        <mxCell id="RLT06DY8JHhMq8nQUrHm-61" value="menghasilkan" style="text;html=1;align=center;verticalAlign=middle;resizable=0;points=[];autosize=1;strokeColor=none;fillColor=none;" vertex="1" parent="1">
          <mxGeometry x="-74" y="296" width="100" height="30" as="geometry" />
        </mxCell>
        <mxCell id="RLT06DY8JHhMq8nQUrHm-62" value="1..1" style="text;html=1;align=center;verticalAlign=middle;resizable=0;points=[];autosize=1;strokeColor=none;fillColor=none;" vertex="1" parent="1">
          <mxGeometry x="40" y="308" width="40" height="30" as="geometry" />
        </mxCell>
        <mxCell id="RLT06DY8JHhMq8nQUrHm-64" value="" style="endArrow=classic;html=1;rounded=0;" edge="1" parent="1">
          <mxGeometry width="50" height="50" relative="1" as="geometry">
            <mxPoint x="-157" y="446" as="sourcePoint" />
            <mxPoint x="-70" y="695" as="targetPoint" />
            <Array as="points">
              <mxPoint x="-157" y="695" />
            </Array>
          </mxGeometry>
        </mxCell>
        <mxCell id="RLT06DY8JHhMq8nQUrHm-65" value="memiliki" style="text;html=1;align=center;verticalAlign=middle;resizable=0;points=[];autosize=1;strokeColor=none;fillColor=none;" vertex="1" parent="1">
          <mxGeometry x="-163" y="562" width="70" height="30" as="geometry" />
        </mxCell>
        <mxCell id="RLT06DY8JHhMq8nQUrHm-66" value="1..*" style="text;html=1;align=center;verticalAlign=middle;resizable=0;points=[];autosize=1;strokeColor=none;fillColor=none;" vertex="1" parent="1">
          <mxGeometry x="320" y="680" width="40" height="30" as="geometry" />
        </mxCell>
        <mxCell id="RLT06DY8JHhMq8nQUrHm-73" style="edgeStyle=orthogonalEdgeStyle;rounded=0;orthogonalLoop=1;jettySize=auto;html=1;entryX=0.25;entryY=1;entryDx=0;entryDy=0;exitX=0.75;exitY=1;exitDx=0;exitDy=0;" edge="1" parent="1" source="RLT06DY8JHhMq8nQUrHm-57" target="RLT06DY8JHhMq8nQUrHm-8">
          <mxGeometry relative="1" as="geometry">
            <Array as="points">
              <mxPoint x="-170" y="710" />
              <mxPoint x="360" y="710" />
            </Array>
          </mxGeometry>
        </mxCell>
        <mxCell id="RLT06DY8JHhMq8nQUrHm-67" value="1..1" style="text;html=1;align=center;verticalAlign=middle;resizable=0;points=[];autosize=1;strokeColor=none;fillColor=none;" vertex="1" parent="1">
          <mxGeometry x="-174" y="365" width="40" height="30" as="geometry" />
        </mxCell>
        <mxCell id="RLT06DY8JHhMq8nQUrHm-74" value="nilai" style="rounded=1;arcSize=10;whiteSpace=wrap;html=1;align=center;" vertex="1" parent="1">
          <mxGeometry x="613" y="750" width="160" height="50" as="geometry" />
        </mxCell>
        <mxCell id="RLT06DY8JHhMq8nQUrHm-76" value="" style="endArrow=classic;html=1;rounded=0;exitX=0.325;exitY=1.1;exitDx=0;exitDy=0;exitPerimeter=0;" edge="1" parent="1" source="RLT06DY8JHhMq8nQUrHm-78">
          <mxGeometry width="50" height="50" relative="1" as="geometry">
            <mxPoint x="463" y="720" as="sourcePoint" />
            <mxPoint x="561" y="763.5" as="targetPoint" />
            <Array as="points">
              <mxPoint x="463" y="764" />
            </Array>
          </mxGeometry>
        </mxCell>
        <mxCell id="RLT06DY8JHhMq8nQUrHm-77" value="1..1" style="text;html=1;align=center;verticalAlign=middle;resizable=0;points=[];autosize=1;strokeColor=none;fillColor=none;" vertex="1" parent="1">
          <mxGeometry x="567" y="747" width="40" height="30" as="geometry" />
        </mxCell>
        <mxCell id="RLT06DY8JHhMq8nQUrHm-78" value="1..1" style="text;html=1;align=center;verticalAlign=middle;resizable=0;points=[];autosize=1;strokeColor=none;fillColor=none;" vertex="1" parent="1">
          <mxGeometry x="450" y="670" width="40" height="30" as="geometry" />
        </mxCell>
        <mxCell id="RLT06DY8JHhMq8nQUrHm-79" value="memiliki" style="text;html=1;align=center;verticalAlign=middle;resizable=0;points=[];autosize=1;strokeColor=none;fillColor=none;" vertex="1" parent="1">
          <mxGeometry x="468" y="735" width="70" height="30" as="geometry" />
        </mxCell>
        <mxCell id="RLT06DY8JHhMq8nQUrHm-95" style="edgeStyle=orthogonalEdgeStyle;rounded=0;orthogonalLoop=1;jettySize=auto;html=1;entryX=0.5;entryY=1;entryDx=0;entryDy=0;" edge="1" parent="1" target="RLT06DY8JHhMq8nQUrHm-94">
          <mxGeometry relative="1" as="geometry">
            <mxPoint x="354" y="111" as="sourcePoint" />
          </mxGeometry>
        </mxCell>
        <mxCell id="RLT06DY8JHhMq8nQUrHm-80" value="publikasi" style="rounded=1;arcSize=10;whiteSpace=wrap;html=1;align=center;" vertex="1" parent="1">
          <mxGeometry x="481" y="176.5" width="160" height="50" as="geometry" />
        </mxCell>
        <mxCell id="RLT06DY8JHhMq8nQUrHm-84" value="1..1" style="text;html=1;align=center;verticalAlign=middle;resizable=0;points=[];autosize=1;strokeColor=none;fillColor=none;" vertex="1" parent="1">
          <mxGeometry x="559" y="226.5" width="40" height="30" as="geometry" />
        </mxCell>
        <mxCell id="RLT06DY8JHhMq8nQUrHm-86" value="memiliki" style="text;html=1;align=center;verticalAlign=middle;resizable=0;points=[];autosize=1;strokeColor=none;fillColor=none;rotation=-90;" vertex="1" parent="1">
          <mxGeometry x="507" y="295" width="70" height="30" as="geometry" />
        </mxCell>
        <mxCell id="RLT06DY8JHhMq8nQUrHm-87" value="1..1" style="text;html=1;align=center;verticalAlign=middle;resizable=0;points=[];autosize=1;strokeColor=none;fillColor=none;" vertex="1" parent="1">
          <mxGeometry x="462" y="361" width="40" height="30" as="geometry" />
        </mxCell>
        <mxCell id="RLT06DY8JHhMq8nQUrHm-89" value="menyetujui" style="text;html=1;align=center;verticalAlign=middle;resizable=0;points=[];autosize=1;strokeColor=none;fillColor=none;" vertex="1" parent="1">
          <mxGeometry x="1005" y="188" width="80" height="30" as="geometry" />
        </mxCell>
        <mxCell id="RLT06DY8JHhMq8nQUrHm-90" value="" style="endArrow=classic;html=1;rounded=0;" edge="1" parent="1">
          <mxGeometry width="50" height="50" relative="1" as="geometry">
            <mxPoint x="1008" y="328" as="sourcePoint" />
            <mxPoint x="830" y="123" as="targetPoint" />
            <Array as="points">
              <mxPoint x="1008" y="123" />
            </Array>
          </mxGeometry>
        </mxCell>
        <mxCell id="RLT06DY8JHhMq8nQUrHm-93" value="1..1" style="text;html=1;align=center;verticalAlign=middle;resizable=0;points=[];autosize=1;strokeColor=none;fillColor=none;" vertex="1" parent="1">
          <mxGeometry x="989" y="362" width="40" height="30" as="geometry" />
        </mxCell>
        <mxCell id="RLT06DY8JHhMq8nQUrHm-94" value="point" style="rounded=1;arcSize=10;whiteSpace=wrap;html=1;align=center;" vertex="1" parent="1">
          <mxGeometry x="274" y="-39" width="160" height="50" as="geometry" />
        </mxCell>
        <mxCell id="RLT06DY8JHhMq8nQUrHm-96" value="memiliki" style="text;html=1;align=center;verticalAlign=middle;resizable=0;points=[];autosize=1;strokeColor=none;fillColor=none;" vertex="1" parent="1">
          <mxGeometry x="359" y="51" width="70" height="30" as="geometry" />
        </mxCell>
        <mxCell id="RLT06DY8JHhMq8nQUrHm-97" value="" style="endArrow=classic;html=1;rounded=0;" edge="1" parent="1">
          <mxGeometry width="50" height="50" relative="1" as="geometry">
            <mxPoint x="365" y="89" as="sourcePoint" />
            <mxPoint x="365" y="39" as="targetPoint" />
          </mxGeometry>
        </mxCell>
        <mxCell id="RLT06DY8JHhMq8nQUrHm-98" value="1..1" style="text;html=1;align=center;verticalAlign=middle;resizable=0;points=[];autosize=1;strokeColor=none;fillColor=none;" vertex="1" parent="1">
          <mxGeometry x="354" y="10" width="40" height="30" as="geometry" />
        </mxCell>
        <mxCell id="RLT06DY8JHhMq8nQUrHm-99" value="1..1" style="text;html=1;align=center;verticalAlign=middle;resizable=0;points=[];autosize=1;strokeColor=none;fillColor=none;" vertex="1" parent="1">
          <mxGeometry x="350" y="89" width="40" height="30" as="geometry" />
        </mxCell>
        <mxCell id="RLT06DY8JHhMq8nQUrHm-100" value="kegiatan" style="rounded=1;arcSize=10;whiteSpace=wrap;html=1;align=center;" vertex="1" parent="1">
          <mxGeometry x="282" y="110" width="160" height="50" as="geometry" />
        </mxCell>
        <mxCell id="RLT06DY8JHhMq8nQUrHm-101" style="edgeStyle=orthogonalEdgeStyle;rounded=0;orthogonalLoop=1;jettySize=auto;html=1;entryX=0.45;entryY=1.06;entryDx=0;entryDy=0;entryPerimeter=0;" edge="1" parent="1" target="RLT06DY8JHhMq8nQUrHm-100">
          <mxGeometry relative="1" as="geometry">
            <mxPoint x="408" y="390" as="sourcePoint" />
          </mxGeometry>
        </mxCell>
        <mxCell id="RLT06DY8JHhMq8nQUrHm-103" value="mendaftarlan" style="text;html=1;align=center;verticalAlign=middle;resizable=0;points=[];autosize=1;strokeColor=none;fillColor=none;" vertex="1" parent="1">
          <mxGeometry x="410" y="274" width="90" height="30" as="geometry" />
        </mxCell>
        <mxCell id="RLT06DY8JHhMq8nQUrHm-104" value="" style="endArrow=classic;html=1;rounded=0;" edge="1" parent="1">
          <mxGeometry width="50" height="50" relative="1" as="geometry">
            <mxPoint x="416" y="347" as="sourcePoint" />
            <mxPoint x="376" y="266" as="targetPoint" />
            <Array as="points">
              <mxPoint x="416" y="266" />
            </Array>
          </mxGeometry>
        </mxCell>
        <mxCell id="RLT06DY8JHhMq8nQUrHm-105" value="1..*" style="text;html=1;align=center;verticalAlign=middle;resizable=0;points=[];autosize=1;strokeColor=none;fillColor=none;" vertex="1" parent="1">
          <mxGeometry x="353" y="159" width="40" height="30" as="geometry" />
        </mxCell>
        <mxCell id="RLT06DY8JHhMq8nQUrHm-106" value="1..1" style="text;html=1;align=center;verticalAlign=middle;resizable=0;points=[];autosize=1;strokeColor=none;fillColor=none;" vertex="1" parent="1">
          <mxGeometry x="404" y="362" width="40" height="30" as="geometry" />
        </mxCell>
        <mxCell id="RLT06DY8JHhMq8nQUrHm-107" value="" style="endArrow=classic;html=1;rounded=0;" edge="1" parent="1">
          <mxGeometry width="50" height="50" relative="1" as="geometry">
            <mxPoint x="553" y="347.5" as="sourcePoint" />
            <mxPoint x="553" y="265.5" as="targetPoint" />
          </mxGeometry>
        </mxCell>
        <mxCell id="RLT06DY8JHhMq8nQUrHm-109" value="mhs_publikasi" style="rounded=1;arcSize=10;whiteSpace=wrap;html=1;align=center;" vertex="1" parent="1">
          <mxGeometry x="659" y="240" width="160" height="50" as="geometry" />
        </mxCell>
        <mxCell id="RLT06DY8JHhMq8nQUrHm-110" value="" style="endArrow=classic;html=1;rounded=0;entryX=0.5;entryY=1;entryDx=0;entryDy=0;" edge="1" parent="1" target="RLT06DY8JHhMq8nQUrHm-109">
          <mxGeometry width="50" height="50" relative="1" as="geometry">
            <mxPoint x="560" y="330" as="sourcePoint" />
            <mxPoint x="784" y="331" as="targetPoint" />
            <Array as="points">
              <mxPoint x="740" y="331" />
            </Array>
          </mxGeometry>
        </mxCell>
        <mxCell id="RLT06DY8JHhMq8nQUrHm-111" value="1..*" style="text;html=1;align=center;verticalAlign=middle;resizable=0;points=[];autosize=1;strokeColor=none;fillColor=none;" vertex="1" parent="1">
          <mxGeometry x="700" y="290" width="40" height="30" as="geometry" />
        </mxCell>
        <mxCell id="RLT06DY8JHhMq8nQUrHm-112" value="1..*" style="text;html=1;align=center;verticalAlign=middle;resizable=0;points=[];autosize=1;strokeColor=none;fillColor=none;" vertex="1" parent="1">
          <mxGeometry x="739" y="290" width="40" height="30" as="geometry" />
        </mxCell>
        <mxCell id="RLT06DY8JHhMq8nQUrHm-114" value="menyetujui" style="text;html=1;align=center;verticalAlign=middle;resizable=0;points=[];autosize=1;strokeColor=none;fillColor=none;" vertex="1" parent="1">
          <mxGeometry x="826" y="168.5" width="80" height="30" as="geometry" />
        </mxCell>
        <mxCell id="RLT06DY8JHhMq8nQUrHm-115" value="" style="endArrow=classic;html=1;rounded=0;" edge="1" parent="1">
          <mxGeometry width="50" height="50" relative="1" as="geometry">
            <mxPoint x="908" y="275" as="sourcePoint" />
            <mxPoint x="808" y="194" as="targetPoint" />
            <Array as="points">
              <mxPoint x="908" y="194" />
            </Array>
          </mxGeometry>
        </mxCell>
        <mxCell id="RLT06DY8JHhMq8nQUrHm-116" value="1..*" style="text;html=1;align=center;verticalAlign=middle;resizable=0;points=[];autosize=1;strokeColor=none;fillColor=none;" vertex="1" parent="1">
          <mxGeometry x="638" y="176" width="40" height="30" as="geometry" />
        </mxCell>
        <mxCell id="RLT06DY8JHhMq8nQUrHm-117" value="1..1" style="text;html=1;align=center;verticalAlign=middle;resizable=0;points=[];autosize=1;strokeColor=none;fillColor=none;" vertex="1" parent="1">
          <mxGeometry x="896" y="363" width="40" height="30" as="geometry" />
        </mxCell>
        <mxCell id="RLT06DY8JHhMq8nQUrHm-118" value="presensi" style="rounded=1;arcSize=10;whiteSpace=wrap;html=1;align=center;" vertex="1" parent="1">
          <mxGeometry x="980" y="560" width="160" height="50" as="geometry" />
        </mxCell>
        <mxCell id="RLT06DY8JHhMq8nQUrHm-123" value="" style="endArrow=classic;html=1;rounded=0;entryX=0;entryY=0.5;entryDx=0;entryDy=0;" edge="1" parent="1" target="RLT06DY8JHhMq8nQUrHm-118">
          <mxGeometry width="50" height="50" relative="1" as="geometry">
            <mxPoint x="480" y="430" as="sourcePoint" />
            <mxPoint x="970" y="585" as="targetPoint" />
            <Array as="points">
              <mxPoint x="550" y="430" />
              <mxPoint x="550" y="470" />
              <mxPoint x="570" y="500" />
              <mxPoint x="550" y="520" />
              <mxPoint x="550" y="585" />
            </Array>
          </mxGeometry>
        </mxCell>
        <mxCell id="RLT06DY8JHhMq8nQUrHm-124" value="" style="endArrow=classic;html=1;rounded=0;" edge="1" parent="1">
          <mxGeometry width="50" height="50" relative="1" as="geometry">
            <mxPoint x="655" y="597" as="sourcePoint" />
            <mxPoint x="880" y="597" as="targetPoint" />
          </mxGeometry>
        </mxCell>
        <mxCell id="RLT06DY8JHhMq8nQUrHm-125" value="melakukan" style="text;html=1;align=center;verticalAlign=middle;resizable=0;points=[];autosize=1;strokeColor=none;fillColor=none;" vertex="1" parent="1">
          <mxGeometry x="743" y="595" width="80" height="30" as="geometry" />
        </mxCell>
        <mxCell id="RLT06DY8JHhMq8nQUrHm-129" value="menyesuaikan" style="text;html=1;align=center;verticalAlign=middle;resizable=0;points=[];autosize=1;strokeColor=none;fillColor=none;" vertex="1" parent="1">
          <mxGeometry x="467" y="970" width="100" height="30" as="geometry" />
        </mxCell>
        <mxCell id="RLT06DY8JHhMq8nQUrHm-130" value="" style="endArrow=classic;html=1;rounded=0;" edge="1" parent="1">
          <mxGeometry width="50" height="50" relative="1" as="geometry">
            <mxPoint x="225" y="970" as="sourcePoint" />
            <mxPoint x="830" y="970" as="targetPoint" />
          </mxGeometry>
        </mxCell>
        <mxCell id="RLT06DY8JHhMq8nQUrHm-131" value="1..1" style="text;html=1;align=center;verticalAlign=middle;resizable=0;points=[];autosize=1;strokeColor=none;fillColor=none;" vertex="1" parent="1">
          <mxGeometry x="1060" y="612" width="40" height="30" as="geometry" />
        </mxCell>
        <mxCell id="RLT06DY8JHhMq8nQUrHm-132" value="1..1" style="text;html=1;align=center;verticalAlign=middle;resizable=0;points=[];autosize=1;strokeColor=none;fillColor=none;" vertex="1" parent="1">
          <mxGeometry x="-262" y="359" width="40" height="30" as="geometry" />
        </mxCell>
        <mxCell id="RLT06DY8JHhMq8nQUrHm-133" value="kuesioner" style="rounded=1;arcSize=10;whiteSpace=wrap;html=1;align=center;" vertex="1" parent="1">
          <mxGeometry x="-50" y="1084" width="160" height="50" as="geometry" />
        </mxCell>
        <mxCell id="RLT06DY8JHhMq8nQUrHm-134" value="" style="endArrow=classic;html=1;rounded=0;entryX=0.5;entryY=0;entryDx=0;entryDy=0;" edge="1" parent="1" target="RLT06DY8JHhMq8nQUrHm-133">
          <mxGeometry width="50" height="50" relative="1" as="geometry">
            <mxPoint x="320" y="418" as="sourcePoint" />
            <mxPoint x="60" y="1010" as="targetPoint" />
            <Array as="points">
              <mxPoint x="250" y="418" />
              <mxPoint x="180" y="420" />
              <mxPoint x="160" y="440" />
              <mxPoint x="140" y="420" />
              <mxPoint x="30" y="420" />
              <mxPoint x="30" y="680" />
              <mxPoint x="60" y="710" />
              <mxPoint x="30" y="740" />
              <mxPoint x="30" y="930" />
              <mxPoint x="50" y="950" />
              <mxPoint x="30" y="980" />
            </Array>
          </mxGeometry>
        </mxCell>
        <mxCell id="RLT06DY8JHhMq8nQUrHm-135" value="mengisi" style="text;html=1;align=center;verticalAlign=middle;resizable=0;points=[];autosize=1;strokeColor=none;fillColor=none;rotation=90;" vertex="1" parent="1">
          <mxGeometry x="24" y="820" width="60" height="30" as="geometry" />
        </mxCell>
        <mxCell id="RLT06DY8JHhMq8nQUrHm-136" value="" style="endArrow=classic;html=1;rounded=0;" edge="1" parent="1">
          <mxGeometry width="50" height="50" relative="1" as="geometry">
            <mxPoint x="39.99999999999999" y="754" as="sourcePoint" />
            <mxPoint x="39.99999999999999" y="914" as="targetPoint" />
          </mxGeometry>
        </mxCell>
        <mxCell id="RLT06DY8JHhMq8nQUrHm-138" value="1..1" style="text;html=1;align=center;verticalAlign=middle;resizable=0;points=[];autosize=1;strokeColor=none;fillColor=none;" vertex="1" parent="1">
          <mxGeometry x="31" y="1050" width="40" height="30" as="geometry" />
        </mxCell>
        <mxCell id="RLT06DY8JHhMq8nQUrHm-139" value="1..1" style="text;html=1;align=center;verticalAlign=middle;resizable=0;points=[];autosize=1;strokeColor=none;fillColor=none;" vertex="1" parent="1">
          <mxGeometry x="278" y="418" width="40" height="30" as="geometry" />
        </mxCell>
        <mxCell id="RLT06DY8JHhMq8nQUrHm-140" value="mhs_kuesioner" style="rounded=1;arcSize=10;whiteSpace=wrap;html=1;align=center;" vertex="1" parent="1">
          <mxGeometry x="-200" y="805" width="160" height="50" as="geometry" />
        </mxCell>
        <mxCell id="RLT06DY8JHhMq8nQUrHm-141" value="" style="endArrow=classic;html=1;rounded=0;entryX=1;entryY=0.5;entryDx=0;entryDy=0;" edge="1" parent="1">
          <mxGeometry width="50" height="50" relative="1" as="geometry">
            <mxPoint x="30" y="830" as="sourcePoint" />
            <mxPoint x="-40" y="829.91" as="targetPoint" />
          </mxGeometry>
        </mxCell>
        <mxCell id="RLT06DY8JHhMq8nQUrHm-142" value="1..*" style="text;html=1;align=center;verticalAlign=middle;resizable=0;points=[];autosize=1;strokeColor=none;fillColor=none;" vertex="1" parent="1">
          <mxGeometry x="-43" y="802" width="40" height="30" as="geometry" />
        </mxCell>
        <mxCell id="RLT06DY8JHhMq8nQUrHm-143" value="1..*" style="text;html=1;align=center;verticalAlign=middle;resizable=0;points=[];autosize=1;strokeColor=none;fillColor=none;" vertex="1" parent="1">
          <mxGeometry x="-43" y="830" width="40" height="30" as="geometry" />
        </mxCell>
      </root>
    </mxGraphModel>
  </diagram>
</mxfile>
